<?xml version="1.0" encoding="UTF-8" standalone="no"?>
<!-- Created with Inkscape (http://www.inkscape.org/) -->

<svg
   xmlns:dc="http://purl.org/dc/elements/1.1/"
   xmlns:cc="http://creativecommons.org/ns#"
   xmlns:rdf="http://www.w3.org/1999/02/22-rdf-syntax-ns#"
   xmlns:svg="http://www.w3.org/2000/svg"
   xmlns="http://www.w3.org/2000/svg"
   xmlns:sodipodi="http://sodipodi.sourceforge.net/DTD/sodipodi-0.dtd"
   xmlns:inkscape="http://www.inkscape.org/namespaces/inkscape"
   width="32"
   height="32"
   viewBox="0 0 8.4666662 8.4666669"
   version="1.1"
   id="svg8"
   inkscape:version="0.92.3 (2405546, 2018-03-11)"
   sodipodi:docname="sandtimer.svg">
  <defs
     id="defs2" />
  <sodipodi:namedview
     id="base"
     pagecolor="#ffffff"
     bordercolor="#666666"
     borderopacity="1.0"
     inkscape:pageopacity="0.0"
     inkscape:pageshadow="2"
     inkscape:zoom="11.313708"
     inkscape:cx="36.415971"
     inkscape:cy="24.300258"
     inkscape:document-units="px"
     inkscape:current-layer="layer1"
     showgrid="false"
     units="px"
     inkscape:window-width="1920"
     inkscape:window-height="924"
     inkscape:window-x="0"
     inkscape:window-y="0"
     inkscape:window-maximized="1"
     inkscape:pagecheckerboard="true" />
  <metadata
     id="metadata5">
    <rdf:RDF>
      <cc:Work
         rdf:about="">
        <dc:format>image/svg+xml</dc:format>
        <dc:type
           rdf:resource="http://purl.org/dc/dcmitype/StillImage" />
        <dc:title></dc:title>
      </cc:Work>
    </rdf:RDF>
  </metadata>
  <g
     inkscape:label="Calque 1"
     inkscape:groupmode="layer"
     id="layer1"
     transform="translate(0,-288.53331)">
    <ellipse
       style="fill:#000080;fill-opacity:1;stroke:#1e00c6;stroke-width:0.66994703;stroke-linecap:round;stroke-miterlimit:4;stroke-dasharray:none;stroke-dashoffset:0;stroke-opacity:1;paint-order:markers stroke fill"
       id="path842-6"
       cx="4.3206367"
       cy="296.18021"
       rx="1.6808561"
       ry="0.47643793" />
    <path
       style="fill:#fdfdff;fill-opacity:0.41148326;stroke:#000000;stroke-width:0.26090375px;stroke-linecap:butt;stroke-linejoin:miter;stroke-opacity:1"
       d="m 5.9055671,289.52935 c -0.434465,1.95433 -0.887338,3.26605 -1.530492,3.20776 0.825711,-0.0348 1.056623,1.15836 1.433881,3.42342 -1.013292,0.39981 -2.21402,0.38146 -3.021981,-0.0507 0.427815,-2.19466 0.447389,-3.33738 1.245559,-3.37277 -0.737013,0.0313 -1.014663,-1.41063 -1.343531,-3.2078 0.734401,-0.52257 2.793783,-0.37968 3.216564,4e-5 z"
       id="path825"
       inkscape:connector-curvature="0"
       sodipodi:nodetypes="cccccccc" />
    <ellipse
       style="fill:#000080;fill-opacity:1;stroke:#1e00c6;stroke-width:0.56006771;stroke-linecap:round;stroke-miterlimit:4;stroke-dasharray:none;stroke-dashoffset:0;stroke-opacity:1;paint-order:markers stroke fill"
       id="path842"
       cx="4.2443085"
       cy="289.18008"
       rx="1.7688687"
       ry="0.31640363" />
    <path
       style="fill:#a9a9e7;fill-opacity:1;stroke:none;stroke-width:0.26090375px;stroke-linecap:butt;stroke-linejoin:miter;stroke-opacity:1"
       d="m 3.3482921,290.97242 c 0.7062508,-0.21953 1.3156084,-0.0999 1.937127,-0.0229 -0.187301,0.63159 -0.337281,1.3084 -1.006394,1.66176 -0.06699,0.92966 -0.285391,1.98778 0.996609,2.20676 l 0.198774,1.12977 c -0.418921,0.15036 -1.523982,0.47405 -2.30827,-0.054 l 0.152798,-1.03249 c 0.90216,-0.25003 0.918987,-1.07249 0.79712,-2.24191 -0.684137,-0.3444 -0.8011482,-1.28474 -0.8587145,-1.64694 z"
       id="path859"
       inkscape:connector-curvature="0"
       sodipodi:nodetypes="cccccccccc" />
  </g>
</svg>
